<svg xmlns="http://www.w3.org/2000/svg" xmlns:xlink="http://www.w3.org/1999/xlink" width="500" zoomAndPan="magnify" viewBox="0 0 375 374.999991" height="500" preserveAspectRatio="xMidYMid meet" version="1.0"><defs><g/></defs><g fill="#e5a55d" fill-opacity="1"><g transform="translate(-11.952152, 303.992396)"><g><path d="M 92.890625 -222.0625 C 104.578125 -222.0625 114.054688 -220.984375 121.328125 -218.828125 C 128.609375 -216.671875 135.734375 -213.644531 142.703125 -209.75 C 144.960938 -208.519531 146.960938 -207.492188 148.703125 -206.671875 C 150.453125 -205.859375 151.941406 -205.453125 153.171875 -205.453125 C 155.015625 -205.453125 156.445312 -206.523438 157.46875 -208.671875 C 158.5 -210.828125 159.320312 -214.265625 159.9375 -218.984375 L 167 -218.984375 C 165.976562 -204.222656 165.46875 -179.207031 165.46875 -143.9375 L 158.390625 -143.9375 C 157.578125 -155.625 154.910156 -166.796875 150.390625 -177.453125 C 145.878906 -188.117188 139.726562 -196.832031 131.9375 -203.59375 C 124.144531 -210.363281 115.125 -213.75 104.875 -213.75 C 95.445312 -213.75 87.859375 -211.238281 82.109375 -206.21875 C 76.367188 -201.195312 73.5 -194.175781 73.5 -185.15625 C 73.5 -178.1875 75.035156 -172.132812 78.109375 -167 C 81.191406 -161.875 85.707031 -156.898438 91.65625 -152.078125 C 97.601562 -147.265625 107.34375 -140.144531 120.875 -130.71875 C 122.101562 -130.101562 123.28125 -129.382812 124.40625 -128.5625 C 125.53125 -127.738281 126.609375 -126.914062 127.640625 -126.09375 C 138.910156 -118.300781 147.929688 -111.378906 154.703125 -105.328125 C 161.472656 -99.285156 166.957031 -92.265625 171.15625 -84.265625 C 175.363281 -76.273438 177.46875 -67.050781 177.46875 -56.59375 C 177.46875 -43.257812 173.722656 -32.03125 166.234375 -22.90625 C 158.753906 -13.789062 148.65625 -6.972656 135.9375 -2.453125 C 123.226562 2.054688 109.1875 4.3125 93.8125 4.3125 C 81.300781 4.3125 70.890625 3.285156 62.578125 1.234375 C 54.273438 -0.816406 46.539062 -3.585938 39.375 -7.078125 C 34.863281 -9.941406 31.375 -11.375 28.90625 -11.375 C 27.0625 -11.375 25.625 -10.296875 24.59375 -8.140625 C 23.570312 -5.992188 22.753906 -2.5625 22.140625 2.15625 L 15.078125 2.15625 C 15.890625 -11.789062 16.296875 -41.523438 16.296875 -87.046875 L 23.375 -87.046875 C 24.8125 -62.640625 29.9375 -42.847656 38.75 -27.671875 C 47.570312 -12.503906 61.101562 -4.921875 79.34375 -4.921875 C 90.625 -4.921875 99.597656 -7.585938 106.265625 -12.921875 C 112.929688 -18.253906 116.265625 -25.632812 116.265625 -35.0625 C 116.265625 -46.75 112.625 -56.742188 105.34375 -65.046875 C 98.0625 -73.347656 86.734375 -82.628906 71.359375 -92.890625 C 59.054688 -101.085938 49.210938 -108.257812 41.828125 -114.40625 C 34.441406 -120.5625 28.390625 -127.6875 23.671875 -135.78125 C 18.960938 -143.882812 16.609375 -153.269531 16.609375 -163.9375 C 16.609375 -176.851562 20.09375 -187.664062 27.0625 -196.375 C 34.03125 -205.09375 43.304688 -211.550781 54.890625 -215.75 C 66.484375 -219.957031 79.148438 -222.0625 92.890625 -222.0625 Z M 92.890625 -222.0625 "/></g></g></g><g fill="#545454" fill-opacity="1"><g transform="translate(207.322962, 303.992396)"><g><path d="M 87.34375 -221.75 C 98.007812 -221.75 106.519531 -220.722656 112.875 -218.671875 C 119.226562 -216.617188 125.6875 -213.644531 132.25 -209.75 C 134.507812 -208.519531 136.507812 -207.492188 138.25 -206.671875 C 139.988281 -205.859375 141.472656 -205.453125 142.703125 -205.453125 C 144.554688 -205.453125 145.992188 -206.523438 147.015625 -208.671875 C 148.035156 -210.828125 148.851562 -214.265625 149.46875 -218.984375 L 156.546875 -218.984375 C 155.523438 -205.242188 155.015625 -181.867188 155.015625 -148.859375 L 147.9375 -148.859375 C 147.113281 -159.929688 144.597656 -170.488281 140.390625 -180.53125 C 136.191406 -190.582031 130.25 -198.734375 122.5625 -204.984375 C 114.875 -211.242188 105.90625 -214.375 95.65625 -214.375 C 85.601562 -214.375 77.445312 -211.550781 71.1875 -205.90625 C 64.9375 -200.269531 61.8125 -192.632812 61.8125 -183 C 61.8125 -175.820312 63.347656 -169.566406 66.421875 -164.234375 C 69.503906 -158.898438 73.8125 -154.03125 79.34375 -149.625 C 84.882812 -145.21875 93.394531 -139.222656 104.875 -131.640625 L 114.71875 -124.875 C 126.8125 -116.875 136.34375 -109.898438 143.3125 -103.953125 C 150.289062 -98.003906 155.984375 -91.082031 160.390625 -83.1875 C 164.796875 -75.300781 167 -66.128906 167 -55.671875 C 167 -42.546875 163.613281 -31.523438 156.84375 -22.609375 C 150.082031 -13.691406 140.910156 -6.972656 129.328125 -2.453125 C 117.742188 2.054688 104.878906 4.3125 90.734375 4.3125 C 79.242188 4.3125 69.707031 3.285156 62.125 1.234375 C 54.539062 -0.816406 47.570312 -3.585938 41.21875 -7.078125 C 36.707031 -9.941406 33.21875 -11.375 30.75 -11.375 C 28.90625 -11.375 27.46875 -10.296875 26.4375 -8.140625 C 25.414062 -5.992188 24.597656 -2.5625 23.984375 2.15625 L 16.921875 2.15625 C 17.734375 -10.757812 18.140625 -38.441406 18.140625 -80.890625 L 25.21875 -80.890625 C 26.65625 -57.921875 31.78125 -39.3125 40.59375 -25.0625 C 49.414062 -10.8125 62.953125 -3.6875 81.203125 -3.6875 C 92.273438 -3.6875 101.394531 -6.660156 108.5625 -12.609375 C 115.738281 -18.554688 119.328125 -27.066406 119.328125 -38.140625 C 119.328125 -49.617188 115.632812 -59.457031 108.25 -67.65625 C 100.875 -75.863281 89.191406 -85.09375 73.203125 -95.34375 C 60.898438 -103.34375 51.054688 -110.3125 43.671875 -116.25 C 36.296875 -122.195312 30.25 -129.21875 25.53125 -137.3125 C 20.8125 -145.414062 18.453125 -154.800781 18.453125 -165.46875 C 18.453125 -177.769531 21.578125 -188.175781 27.828125 -196.6875 C 34.085938 -205.195312 42.445312 -211.5 52.90625 -215.59375 C 63.363281 -219.695312 74.84375 -221.75 87.34375 -221.75 Z M 87.34375 -221.75 "/></g></g></g></svg>